<svg xmlns="http://www.w3.org/2000/svg" xmlns:xlink="http://www.w3.org/1999/xlink" width="180" zoomAndPan="magnify" viewBox="0 0 135 135.000003" height="180" preserveAspectRatio="xMidYMid meet" version="1.0"><path fill="#0b4f74" d="M 74.308594 44.328125 C 86.042969 41.660156 101.78125 25.570312 111.847656 40.835938 C 114.257812 44.488281 114.390625 49.390625 113.191406 54.683594 L 111.257812 54.683594 C 112.753906 48.886719 112.558594 44.734375 109.179688 40.277344 C 99.761719 29.84375 89.09375 42.804688 74.394531 46.167969 C 73.882812 46.191406 73.449219 45.796875 73.429688 45.289062 C 73.40625 44.78125 73.800781 44.351562 74.308594 44.328125 Z M 104.039062 80.4375 C 99.652344 87.507812 95.046875 93.105469 93.101562 94.636719 C 90.695312 96.6875 89.5 96.40625 88.699219 94.746094 C 85.828125 88.492188 82.785156 78.613281 75.980469 80.859375 C 46.027344 92.417969 35.691406 86.996094 7.960938 73.589844 C 25.140625 80.511719 43.105469 89.222656 62.046875 83.613281 C 81.183594 77.949219 81.738281 73.335938 89.980469 93.625 C 89.90625 93.414062 90.316406 94.550781 90.617188 94.46875 C 93.078125 93.8125 97.566406 87.527344 101.71875 80.4375 Z M 104.039062 80.4375 " fill-opacity="1" fill-rule="evenodd"/><path fill="#0b4f74" d="M 73.882812 69.601562 C 75.402344 69.601562 76.523438 69.230469 77.242188 68.488281 C 77.960938 67.746094 78.320312 66.585938 78.320312 65.003906 C 78.320312 63.546875 77.925781 62.421875 77.140625 61.613281 C 76.355469 60.808594 75.253906 60.40625 73.84375 60.40625 L 72.050781 60.40625 L 72.050781 69.601562 Z M 74.054688 72 L 69.292969 72 L 69.292969 58.027344 L 73.976562 58.027344 C 75.25 58.027344 76.265625 58.15625 77.027344 58.410156 C 77.792969 58.664062 78.484375 59.09375 79.109375 59.695312 C 79.769531 60.335938 80.269531 61.109375 80.609375 62.019531 C 80.949219 62.925781 81.117188 63.949219 81.117188 65.082031 C 81.117188 66.34375 80.882812 67.476562 80.40625 68.480469 C 79.933594 69.484375 79.242188 70.304688 78.335938 70.953125 C 77.824219 71.328125 77.25 71.597656 76.613281 71.757812 C 75.980469 71.917969 75.128906 71.996094 74.054688 71.996094 Z M 90.480469 65.554688 C 90.269531 64.847656 89.914062 64.3125 89.417969 63.945312 C 88.921875 63.574219 88.296875 63.390625 87.539062 63.390625 C 86.886719 63.390625 86.300781 63.589844 85.78125 63.988281 C 85.261719 64.382812 84.914062 64.90625 84.734375 65.554688 Z M 84.648438 67.5 C 84.730469 68.257812 85.035156 68.859375 85.558594 69.296875 C 86.074219 69.734375 86.753906 69.953125 87.578125 69.953125 C 88.128906 69.953125 88.625 69.839844 89.066406 69.609375 C 89.5 69.378906 89.851562 69.054688 90.105469 68.636719 L 92.765625 68.636719 C 92.316406 69.789062 91.648438 70.683594 90.75 71.320312 C 89.855469 71.957031 88.820312 72.273438 87.644531 72.273438 C 86.859375 72.273438 86.132812 72.136719 85.46875 71.859375 C 84.804688 71.578125 84.210938 71.167969 83.679688 70.621094 C 83.183594 70.105469 82.792969 69.503906 82.519531 68.824219 C 82.242188 68.148438 82.105469 67.445312 82.105469 66.730469 C 82.105469 65.996094 82.234375 65.304688 82.484375 64.65625 C 82.738281 64.007812 83.113281 63.421875 83.605469 62.90625 C 84.144531 62.335938 84.753906 61.898438 85.433594 61.59375 C 86.117188 61.285156 86.816406 61.128906 87.542969 61.128906 C 88.457031 61.128906 89.316406 61.335938 90.109375 61.753906 C 90.90625 62.167969 91.582031 62.753906 92.140625 63.507812 C 92.480469 63.964844 92.730469 64.472656 92.894531 65.035156 C 93.058594 65.59375 93.140625 66.238281 93.140625 66.96875 C 93.140625 67.027344 93.140625 67.113281 93.132812 67.230469 C 93.125 67.351562 93.121094 67.4375 93.121094 67.496094 L 84.648438 67.496094 Z M 97.09375 61.445312 L 97.09375 62.640625 C 97.453125 62.164062 97.867188 61.804688 98.328125 61.578125 C 98.792969 61.34375 99.324219 61.230469 99.921875 61.230469 C 100.683594 61.230469 101.351562 61.375 101.917969 61.660156 C 102.488281 61.949219 102.960938 62.382812 103.335938 62.957031 C 103.582031 63.34375 103.753906 63.777344 103.863281 64.265625 C 103.96875 64.757812 104.019531 65.472656 104.019531 66.410156 L 104.019531 71.996094 L 101.558594 71.996094 L 101.558594 67.320312 C 101.558594 65.910156 101.394531 64.941406 101.066406 64.414062 C 100.738281 63.886719 100.175781 63.625 99.371094 63.625 C 98.550781 63.625 97.960938 63.914062 97.601562 64.496094 C 97.242188 65.074219 97.0625 66.066406 97.0625 67.476562 L 97.0625 71.996094 L 94.679688 71.996094 L 94.679688 61.445312 Z M 106.917969 72 L 106.917969 63.625 L 105.300781 63.625 L 105.300781 61.445312 L 106.917969 61.445312 L 106.917969 58.027344 L 109.382812 58.027344 L 109.382812 61.445312 L 111.019531 61.445312 L 111.019531 63.625 L 109.382812 63.625 L 109.382812 72 Z M 114.074219 66.628906 C 114.074219 67.519531 114.371094 68.261719 114.964844 68.859375 C 115.558594 69.460938 116.28125 69.757812 117.132812 69.757812 C 117.910156 69.757812 118.589844 69.457031 119.179688 68.859375 C 119.769531 68.253906 120.0625 67.550781 120.0625 66.746094 C 120.0625 65.886719 119.769531 65.148438 119.175781 64.535156 C 118.582031 63.914062 117.890625 63.609375 117.09375 63.609375 C 116.261719 63.609375 115.550781 63.898438 114.960938 64.484375 C 114.371094 65.070312 114.074219 65.785156 114.074219 66.632812 Z M 120.34375 72 L 120.34375 70.699219 C 120.046875 71.226562 119.632812 71.613281 119.097656 71.859375 C 118.5625 72.109375 117.878906 72.234375 117.046875 72.234375 C 115.480469 72.234375 114.175781 71.699219 113.125 70.636719 C 112.078125 69.570312 111.554688 68.246094 111.554688 66.667969 C 111.554688 65.925781 111.683594 65.222656 111.949219 64.558594 C 112.210938 63.890625 112.585938 63.304688 113.074219 62.800781 C 113.597656 62.246094 114.179688 61.835938 114.820312 61.570312 C 115.464844 61.304688 116.183594 61.171875 116.984375 61.171875 C 117.753906 61.171875 118.417969 61.296875 118.972656 61.554688 C 119.527344 61.8125 119.976562 62.199219 120.3125 62.714844 L 120.3125 61.445312 L 122.726562 61.445312 L 122.726562 72 Z M 124.894531 72 L 124.894531 58.027344 L 127.300781 58.027344 L 127.300781 72 Z M 124.894531 72 " fill-opacity="1" fill-rule="nonzero"/><path fill="#0b4f74" d="M 65.109375 68.335938 C 66.160156 68.335938 67.015625 69.1875 67.015625 70.234375 C 67.015625 71.285156 66.160156 72.136719 65.109375 72.136719 C 64.054688 72.136719 63.203125 71.285156 63.203125 70.234375 C 63.203125 69.1875 64.054688 68.335938 65.109375 68.335938 Z M 65.109375 68.335938 " fill-opacity="1" fill-rule="evenodd"/><path fill="#5daf85" d="M 36.714844 58.871094 C 36.714844 58.554688 36.859375 58.222656 37.148438 57.875 C 37.4375 57.53125 37.742188 57.355469 38.058594 57.355469 C 38.234375 57.355469 38.386719 57.4375 38.515625 57.59375 C 38.644531 57.753906 38.710938 57.933594 38.710938 58.136719 C 38.710938 58.484375 38.582031 58.820312 38.320312 59.152344 C 38.058594 59.484375 37.757812 59.652344 37.410156 59.652344 C 36.945312 59.652344 36.714844 59.390625 36.714844 58.871094 Z M 31.632812 64.804688 C 31.574219 64.804688 31.546875 64.773438 31.546875 64.71875 C 31.546875 64.660156 31.589844 64.601562 31.675781 64.542969 C 32.601562 63.910156 33.398438 63.589844 34.066406 63.589844 C 35.050781 63.589844 35.542969 64.039062 35.542969 64.933594 C 35.542969 65.28125 35.050781 66.3125 34.066406 68.03125 C 33.082031 69.746094 32.589844 70.9375 32.589844 71.601562 C 32.589844 72.351562 33.09375 72.726562 34.109375 72.726562 C 35.09375 72.726562 36.511719 71.960938 38.363281 70.433594 C 39.464844 69.480469 40.246094 68.640625 40.707031 67.921875 C 40.765625 67.835938 40.824219 67.792969 40.882812 67.792969 C 40.941406 67.792969 40.96875 67.820312 40.96875 67.878906 C 40.96875 67.90625 40.953125 67.949219 40.925781 68.007812 C 40.203125 68.960938 39.421875 69.8125 38.582031 70.5625 C 38.234375 70.878906 37.804688 71.234375 37.300781 71.621094 C 36.792969 72.011719 36.097656 72.417969 35.214844 72.835938 C 34.332031 73.253906 33.542969 73.464844 32.847656 73.464844 C 32.242188 73.464844 31.753906 73.320312 31.394531 73.03125 C 31.03125 72.742188 30.851562 72.351562 30.851562 71.859375 C 30.851562 70.996094 31.386719 69.703125 32.457031 67.984375 C 33.527344 66.269531 34.0625 65.222656 34.0625 64.847656 C 34.0625 64.328125 33.847656 64.066406 33.414062 64.066406 C 32.980469 64.066406 32.457031 64.269531 31.851562 64.671875 Z M 31.632812 64.804688 " fill-opacity="1" fill-rule="nonzero"/><path fill="#5daf85" d="M 36.53125 58.871094 C 36.53125 58.511719 36.691406 58.140625 37.007812 57.761719 C 37.167969 57.570312 37.332031 57.425781 37.503906 57.328125 C 37.683594 57.226562 37.867188 57.175781 38.058594 57.175781 C 38.175781 57.175781 38.285156 57.203125 38.386719 57.257812 C 38.488281 57.308594 38.578125 57.382812 38.65625 57.480469 C 38.734375 57.574219 38.792969 57.675781 38.832031 57.789062 C 38.875 57.898438 38.894531 58.015625 38.894531 58.136719 C 38.894531 58.332031 38.855469 58.523438 38.785156 58.714844 C 38.710938 58.902344 38.605469 59.085938 38.464844 59.265625 C 38.316406 59.453125 38.15625 59.589844 37.984375 59.6875 C 37.804688 59.785156 37.613281 59.832031 37.410156 59.832031 C 37.121094 59.832031 36.902344 59.746094 36.75 59.578125 C 36.605469 59.414062 36.53125 59.175781 36.53125 58.871094 Z M 37.289062 57.992188 C 37.027344 58.304688 36.894531 58.597656 36.894531 58.871094 C 36.894531 59.085938 36.9375 59.242188 37.023438 59.335938 C 37.101562 59.425781 37.230469 59.46875 37.410156 59.46875 C 37.550781 59.46875 37.6875 59.4375 37.808594 59.367188 C 37.941406 59.296875 38.0625 59.1875 38.175781 59.042969 C 38.296875 58.890625 38.386719 58.738281 38.445312 58.585938 C 38.5 58.4375 38.53125 58.285156 38.53125 58.136719 C 38.53125 58.054688 38.515625 57.980469 38.492188 57.910156 C 38.464844 57.839844 38.425781 57.773438 38.375 57.710938 C 38.324219 57.648438 38.273438 57.605469 38.21875 57.574219 C 38.171875 57.550781 38.117188 57.539062 38.058594 57.539062 C 37.933594 57.539062 37.808594 57.574219 37.683594 57.644531 C 37.550781 57.71875 37.417969 57.835938 37.289062 57.992188 Z M 31.632812 64.984375 C 31.453125 64.984375 31.363281 64.894531 31.363281 64.71875 C 31.363281 64.648438 31.386719 64.582031 31.433594 64.523438 C 31.46875 64.476562 31.515625 64.433594 31.578125 64.394531 C 32.050781 64.070312 32.492188 63.824219 32.902344 63.660156 C 33.320312 63.496094 33.710938 63.410156 34.066406 63.410156 C 34.605469 63.410156 35.015625 63.539062 35.296875 63.792969 C 35.582031 64.054688 35.722656 64.433594 35.722656 64.933594 C 35.722656 65.132812 35.59375 65.503906 35.335938 66.046875 C 35.089844 66.5625 34.71875 67.253906 34.222656 68.121094 C 33.734375 68.972656 33.367188 69.695312 33.125 70.28125 C 32.890625 70.851562 32.769531 71.292969 32.769531 71.601562 C 32.769531 71.917969 32.875 72.148438 33.078125 72.300781 C 33.296875 72.464844 33.640625 72.546875 34.109375 72.546875 C 34.570312 72.546875 35.144531 72.363281 35.824219 71.996094 C 36.523438 71.617188 37.332031 71.050781 38.25 70.292969 C 38.792969 69.824219 39.257812 69.378906 39.644531 68.96875 C 40.027344 68.554688 40.332031 68.175781 40.554688 67.824219 L 40.558594 67.820312 C 40.652344 67.679688 40.761719 67.609375 40.882812 67.609375 C 40.960938 67.609375 41.027344 67.636719 41.078125 67.6875 C 41.128906 67.734375 41.152344 67.800781 41.152344 67.878906 C 41.152344 67.9375 41.132812 68.007812 41.089844 68.089844 L 41.070312 68.117188 C 40.710938 68.59375 40.328125 69.050781 39.929688 69.484375 C 39.535156 69.914062 39.128906 70.316406 38.703125 70.695312 C 38.53125 70.855469 38.335938 71.023438 38.117188 71.207031 C 37.898438 71.386719 37.664062 71.574219 37.410156 71.765625 C 36.894531 72.164062 36.1875 72.574219 35.292969 73 C 34.84375 73.214844 34.414062 73.375 34.007812 73.480469 C 33.597656 73.589844 33.210938 73.644531 32.851562 73.644531 C 32.53125 73.644531 32.238281 73.605469 31.980469 73.53125 C 31.714844 73.453125 31.484375 73.332031 31.28125 73.171875 C 31.078125 73.007812 30.925781 72.816406 30.824219 72.597656 C 30.722656 72.378906 30.671875 72.132812 30.671875 71.863281 C 30.671875 71.40625 30.808594 70.84375 31.085938 70.175781 C 31.359375 69.519531 31.765625 68.757812 32.304688 67.890625 C 32.835938 67.039062 33.238281 66.351562 33.503906 65.832031 C 33.757812 65.335938 33.882812 65.007812 33.882812 64.847656 C 33.882812 64.632812 33.84375 64.476562 33.765625 64.378906 C 33.691406 64.292969 33.574219 64.25 33.414062 64.25 C 33.21875 64.25 33.003906 64.296875 32.761719 64.390625 C 32.515625 64.484375 32.246094 64.628906 31.953125 64.824219 L 31.726562 64.960938 L 31.632812 64.988281 Z M 34.066406 63.773438 C 33.84375 63.773438 33.605469 63.8125 33.351562 63.886719 L 33.414062 63.886719 C 33.6875 63.886719 33.894531 63.972656 34.042969 64.148438 C 34.179688 64.3125 34.246094 64.542969 34.246094 64.847656 C 34.246094 65.0625 34.105469 65.445312 33.824219 65.996094 C 33.554688 66.523438 33.152344 67.21875 32.613281 68.082031 C 32.082031 68.933594 31.683594 69.675781 31.421875 70.3125 C 31.164062 70.933594 31.035156 71.453125 31.035156 71.863281 C 31.035156 72.082031 31.074219 72.277344 31.152344 72.445312 C 31.230469 72.617188 31.347656 72.761719 31.507812 72.890625 C 31.667969 73.019531 31.859375 73.117188 32.082031 73.179688 C 32.304688 73.25 32.5625 73.28125 32.847656 73.28125 C 33.183594 73.28125 33.539062 73.230469 33.914062 73.132812 C 34.226562 73.050781 34.550781 72.933594 34.890625 72.785156 C 34.609375 72.867188 34.347656 72.910156 34.109375 72.910156 C 33.5625 72.910156 33.144531 72.804688 32.859375 72.589844 C 32.558594 72.367188 32.40625 72.039062 32.40625 71.601562 C 32.40625 71.246094 32.535156 70.761719 32.789062 70.140625 C 33.039062 69.539062 33.414062 68.804688 33.90625 67.941406 C 34.394531 67.089844 34.761719 66.40625 35.007812 65.890625 C 35.242188 65.398438 35.359375 65.082031 35.359375 64.933594 C 35.359375 64.539062 35.257812 64.25 35.050781 64.0625 C 34.839844 63.871094 34.511719 63.773438 34.066406 63.773438 Z M 34.066406 63.773438 " fill-opacity="1" fill-rule="nonzero"/><path fill="#5daf85" d="M 41.675781 71.984375 C 28.703125 81.480469 22.21875 88.421875 22.21875 92.808594 C 22.21875 93.847656 22.410156 95.011719 22.785156 96.296875 C 23.160156 97.578125 23.753906 98.222656 24.566406 98.222656 C 25.203125 98.222656 26.113281 97.765625 27.300781 96.859375 C 28.488281 95.949219 29.355469 95.0625 29.90625 94.195312 C 31.09375 92.347656 33.046875 88.726562 35.769531 83.328125 C 38.488281 77.929688 40.457031 74.148438 41.675781 71.984375 Z M 63.046875 40.960938 C 68.210938 41.582031 71.074219 47.546875 78.199219 48.847656 C 78.628906 48.957031 78.570312 49.269531 77.730469 49.378906 C 73.179688 49.648438 66.765625 42.316406 62.894531 42.136719 C 57.929688 41.898438 53.179688 52.421875 50.792969 57.089844 L 44.628906 69.300781 L 51.445312 64.667969 L 51.664062 64.539062 C 51.71875 64.539062 51.75 64.566406 51.75 64.625 C 51.75 64.683594 51.707031 64.738281 51.617188 64.796875 C 50.664062 65.402344 48.21875 67.136719 44.28125 69.992188 C 35.972656 85.378906 31.296875 93.691406 30.253906 94.933594 C 29.210938 96.171875 27.980469 97.210938 26.5625 98.050781 C 25.144531 98.886719 24.144531 99.304688 23.566406 99.304688 C 22.582031 99.304688 21.878906 98.605469 21.460938 97.207031 C 21.039062 95.804688 20.832031 94.3125 20.832031 92.722656 C 20.832031 91.859375 21.078125 90.90625 21.570312 89.867188 C 22.0625 88.828125 22.65625 87.839844 23.347656 86.902344 C 24.042969 85.960938 24.992188 84.910156 26.195312 83.738281 C 27.394531 82.570312 28.464844 81.566406 29.40625 80.730469 C 30.347656 79.894531 31.5625 78.898438 33.054688 77.742188 C 34.546875 76.589844 35.6875 75.722656 36.484375 75.144531 C 37.28125 74.566406 38.359375 73.789062 39.71875 72.808594 C 41.082031 71.824219 41.890625 71.25 42.152344 71.074219 L 43.671875 68.042969 L 49.75 56.484375 C 51.765625 52.699219 55.921875 44.628906 59.347656 42.066406 C 60.507812 41.199219 61.6875 40.945312 63.046875 40.960938 Z M 63.046875 40.960938 " fill-opacity="1" fill-rule="nonzero"/><path fill="#5daf85" d="M 41.113281 72.621094 C 34.972656 77.15625 30.339844 81.09375 27.21875 84.4375 C 24.007812 87.871094 22.402344 90.664062 22.402344 92.808594 C 22.402344 93.324219 22.449219 93.863281 22.539062 94.433594 C 22.632812 95.007812 22.773438 95.609375 22.957031 96.246094 C 23.136719 96.859375 23.367188 97.316406 23.644531 97.617188 C 23.90625 97.898438 24.210938 98.039062 24.566406 98.039062 C 24.855469 98.039062 25.214844 97.933594 25.644531 97.71875 C 26.089844 97.5 26.605469 97.164062 27.191406 96.714844 C 27.777344 96.265625 28.285156 95.820312 28.710938 95.382812 C 29.136719 94.949219 29.484375 94.523438 29.753906 94.097656 C 30.34375 93.179688 31.125 91.816406 32.101562 90.007812 C 33.082031 88.1875 34.25 85.933594 35.605469 83.246094 C 36.976562 80.53125 38.148438 78.238281 39.125 76.359375 C 39.90625 74.859375 40.570312 73.613281 41.113281 72.621094 Z M 26.949219 84.191406 C 30.199219 80.710938 35.074219 76.59375 41.566406 71.835938 L 41.832031 72.074219 C 41.222656 73.15625 40.429688 74.640625 39.449219 76.527344 C 38.457031 78.429688 37.285156 80.726562 35.929688 83.410156 C 34.566406 86.117188 33.394531 88.375 32.421875 90.179688 C 31.445312 91.992188 30.65625 93.363281 30.058594 94.292969 C 29.777344 94.734375 29.414062 95.183594 28.972656 95.636719 C 28.53125 96.085938 28.011719 96.542969 27.410156 97.003906 C 26.808594 97.460938 26.273438 97.808594 25.808594 98.042969 C 25.324219 98.285156 24.910156 98.402344 24.566406 98.402344 C 24.105469 98.402344 23.710938 98.222656 23.378906 97.863281 C 23.0625 97.523438 22.808594 97.015625 22.609375 96.347656 C 22.421875 95.695312 22.277344 95.078125 22.183594 94.488281 C 22.085938 93.898438 22.039062 93.335938 22.039062 92.808594 C 22.039062 90.570312 23.675781 87.695312 26.949219 84.191406 Z M 63.070312 40.78125 C 65.558594 41.078125 67.503906 42.582031 69.628906 44.21875 C 71.960938 46.019531 74.515625 47.992188 78.230469 48.671875 L 78.242188 48.671875 C 78.398438 48.710938 78.511719 48.777344 78.574219 48.859375 C 78.636719 48.933594 78.65625 49.019531 78.636719 49.109375 C 78.621094 49.183594 78.574219 49.253906 78.5 49.3125 C 78.375 49.414062 78.128906 49.507812 77.753906 49.558594 L 77.738281 49.558594 C 75.222656 49.707031 72.203125 47.625 69.332031 45.644531 C 66.921875 43.984375 64.617188 42.398438 62.886719 42.316406 C 58.488281 42.109375 54.183594 50.71875 51.664062 55.765625 C 51.410156 56.273438 51.171875 56.746094 50.957031 57.171875 L 45.105469 68.753906 C 47.1875 67.339844 49.433594 65.65625 51.570312 64.382812 L 51.664062 64.355469 C 51.742188 64.355469 51.804688 64.378906 51.855469 64.429688 C 51.90625 64.480469 51.929688 64.542969 51.929688 64.625 C 51.929688 64.691406 51.90625 64.757812 51.863281 64.816406 C 51.828125 64.863281 51.78125 64.90625 51.71875 64.949219 L 51.714844 64.949219 C 51.246094 65.246094 50.398438 65.832031 49.171875 66.699219 C 47.941406 67.566406 46.359375 68.707031 44.421875 70.113281 C 40.277344 77.789062 37.035156 83.703125 34.699219 87.855469 C 32.359375 92.019531 30.921875 94.417969 30.394531 95.046875 C 29.867188 95.675781 29.289062 96.253906 28.667969 96.78125 C 28.042969 97.304688 27.375 97.78125 26.65625 98.203125 C 25.9375 98.628906 25.324219 98.945312 24.820312 99.15625 C 24.296875 99.375 23.878906 99.484375 23.566406 99.484375 C 23.023438 99.484375 22.558594 99.292969 22.171875 98.90625 C 21.800781 98.535156 21.503906 97.984375 21.285156 97.257812 C 21.074219 96.546875 20.914062 95.816406 20.808594 95.058594 C 20.703125 94.300781 20.648438 93.523438 20.648438 92.722656 C 20.648438 92.277344 20.710938 91.808594 20.839844 91.3125 C 20.964844 90.824219 21.15625 90.316406 21.40625 89.789062 C 21.652344 89.265625 21.925781 88.75 22.226562 88.25 C 22.527344 87.75 22.851562 87.265625 23.203125 86.792969 C 23.554688 86.320312 23.96875 85.816406 24.445312 85.285156 C 24.925781 84.753906 25.464844 84.195312 26.066406 83.609375 C 26.671875 83.023438 27.238281 82.476562 27.773438 81.976562 C 28.316406 81.472656 28.820312 81.011719 29.285156 80.59375 C 29.761719 80.171875 30.300781 79.714844 30.910156 79.214844 C 31.527344 78.710938 32.207031 78.171875 32.941406 77.597656 C 33.660156 77.042969 34.320312 76.539062 34.921875 76.082031 C 35.507812 75.636719 35.996094 75.277344 36.378906 74.996094 L 39.613281 72.660156 C 40.273438 72.183594 40.816406 71.792969 41.242188 71.488281 C 41.613281 71.226562 41.871094 71.046875 42.011719 70.949219 C 44.464844 66.058594 47.042969 61.246094 49.589844 56.398438 L 49.941406 55.742188 C 52.0625 51.734375 55.96875 44.367188 59.238281 41.921875 C 59.839844 41.472656 60.445312 41.183594 61.074219 41.007812 C 61.703125 40.832031 62.355469 40.769531 63.050781 40.777344 L 63.070312 40.777344 Z M 69.40625 44.507812 C 67.324219 42.898438 65.417969 41.429688 63.03125 41.140625 C 62.375 41.132812 61.757812 41.191406 61.171875 41.355469 C 60.582031 41.519531 60.015625 41.792969 59.457031 42.210938 C 56.25 44.609375 52.371094 51.929688 50.261719 55.910156 L 49.914062 56.566406 L 43.832031 68.128906 L 42.316406 71.15625 L 42.253906 71.226562 C 42.121094 71.3125 41.855469 71.5 41.453125 71.785156 C 41.070312 72.058594 40.527344 72.449219 39.828125 72.953125 L 36.589844 75.292969 C 36.179688 75.589844 35.695312 75.949219 35.140625 76.371094 C 34.597656 76.78125 33.941406 77.285156 33.167969 77.886719 C 32.414062 78.46875 31.738281 79.003906 31.140625 79.496094 C 30.53125 79.992188 29.996094 80.449219 29.527344 80.863281 C 29.054688 81.285156 28.550781 81.746094 28.023438 82.242188 C 27.484375 82.746094 26.917969 83.285156 26.320312 83.867188 C 25.722656 84.453125 25.1875 85.003906 24.714844 85.527344 C 24.246094 86.046875 23.839844 86.542969 23.496094 87.007812 C 23.152344 87.472656 22.832031 87.949219 22.539062 88.4375 C 22.246094 88.925781 21.976562 89.425781 21.734375 89.941406 C 21.492188 90.453125 21.3125 90.941406 21.191406 91.402344 C 21.070312 91.863281 21.011719 92.304688 21.011719 92.722656 C 21.011719 93.511719 21.0625 94.273438 21.167969 95.007812 C 21.269531 95.746094 21.425781 96.460938 21.632812 97.152344 C 21.835938 97.824219 22.101562 98.324219 22.429688 98.652344 C 22.746094 98.964844 23.125 99.121094 23.566406 99.121094 C 23.832031 99.121094 24.203125 99.023438 24.679688 98.824219 C 25.171875 98.617188 25.769531 98.304688 26.46875 97.890625 C 27.171875 97.480469 27.824219 97.015625 28.429688 96.503906 C 29.039062 95.992188 29.597656 95.425781 30.113281 94.816406 C 30.628906 94.203125 32.050781 91.824219 34.382812 87.675781 C 36.71875 83.519531 39.964844 77.597656 44.121094 69.90625 L 44.171875 69.84375 L 44.726562 69.445312 L 44.464844 69.21875 L 50.632812 57.007812 C 50.847656 56.582031 51.082031 56.113281 51.335938 55.605469 C 53.898438 50.480469 58.269531 41.734375 62.902344 41.953125 C 64.738281 42.039062 67.082031 43.65625 69.535156 45.347656 C 72.355469 47.289062 75.324219 49.335938 77.714844 49.195312 C 77.980469 49.160156 78.152344 49.109375 78.242188 49.050781 C 78.21875 49.042969 78.1875 49.035156 78.152344 49.023438 C 74.355469 48.328125 71.769531 46.328125 69.40625 44.503906 Z M 69.40625 44.507812 " fill-opacity="1" fill-rule="nonzero"/><path fill="#5daf85" d="M 52.097656 69.300781 C 51.835938 70.019531 51.707031 70.671875 51.707031 71.25 C 51.707031 72.546875 52.414062 73.195312 53.832031 73.195312 C 55.484375 73.195312 57.421875 72.242188 59.652344 70.339844 C 60.609375 69.5 61.316406 68.738281 61.78125 68.042969 C 61.839844 67.957031 61.894531 67.914062 61.953125 67.914062 C 62.011719 67.914062 62.039062 67.941406 62.039062 68 C 62.039062 68.03125 62.027344 68.074219 61.996094 68.128906 C 60.40625 70.210938 58.464844 71.824219 56.179688 72.980469 C 55.078125 73.5 54.007812 73.757812 52.964844 73.757812 C 50.996094 73.757812 50.011719 73.082031 50.011719 71.722656 C 50.011719 71.523438 50.070312 71.160156 50.1875 70.640625 C 50.097656 70.699219 49.984375 70.785156 49.839844 70.902344 C 49.695312 71.015625 49.578125 71.117188 49.492188 71.203125 L 49.316406 71.335938 C 49.289062 71.335938 49.273438 71.304688 49.273438 71.246094 C 49.273438 71.191406 49.289062 71.148438 49.316406 71.117188 C 49.492188 70.945312 49.808594 70.683594 50.273438 70.339844 C 50.910156 68.375 52.015625 66.714844 53.59375 65.359375 C 55.171875 64.003906 56.394531 63.324219 57.261719 63.324219 C 58.015625 63.324219 58.390625 63.613281 58.390625 64.191406 C 58.390625 64.390625 58.3125 64.609375 58.152344 64.839844 C 57.992188 65.070312 57.703125 65.351562 57.285156 65.683594 C 56.863281 66.015625 56.460938 66.320312 56.070312 66.59375 C 55.675781 66.867188 55.0625 67.285156 54.222656 67.847656 C 53.382812 68.414062 52.675781 68.894531 52.09375 69.300781 Z M 52.269531 68.910156 C 53.976562 67.667969 55.195312 66.714844 55.917969 66.050781 C 56.640625 65.386719 57.003906 64.839844 57.003906 64.40625 C 57.003906 64.089844 56.84375 63.929688 56.527344 63.929688 C 55.800781 63.929688 55.035156 64.4375 54.222656 65.445312 C 53.414062 66.457031 52.761719 67.613281 52.269531 68.910156 Z M 52.269531 68.910156 " fill-opacity="1" fill-rule="nonzero"/><path fill="#5daf85" d="M 52.246094 69.414062 C 52.132812 69.746094 52.042969 70.0625 51.980469 70.363281 C 51.917969 70.675781 51.886719 70.972656 51.886719 71.25 C 51.886719 71.84375 52.046875 72.289062 52.359375 72.574219 C 52.679688 72.867188 53.171875 73.015625 53.832031 73.015625 C 55.4375 73.015625 57.339844 72.078125 59.53125 70.203125 C 60.007812 69.785156 60.421875 69.386719 60.765625 69.015625 C 61.113281 68.640625 61.402344 68.285156 61.628906 67.945312 C 61.722656 67.804688 61.832031 67.734375 61.953125 67.734375 C 62.03125 67.734375 62.097656 67.757812 62.148438 67.808594 C 62.199219 67.859375 62.222656 67.921875 62.222656 68 C 62.222656 68.058594 62.203125 68.128906 62.160156 68.210938 L 62.140625 68.242188 C 61.335938 69.289062 60.445312 70.222656 59.464844 71.039062 C 58.484375 71.855469 57.417969 72.558594 56.261719 73.140625 L 56.257812 73.144531 C 55.695312 73.410156 55.140625 73.605469 54.59375 73.738281 C 54.042969 73.875 53.5 73.941406 52.964844 73.941406 C 51.945312 73.941406 51.171875 73.761719 50.648438 73.398438 C 50.101562 73.023438 49.828125 72.464844 49.828125 71.722656 C 49.828125 71.617188 49.84375 71.464844 49.875 71.273438 L 49.910156 71.074219 L 49.761719 71.199219 C 49.710938 71.246094 49.664062 71.289062 49.621094 71.332031 L 49.425781 71.480469 L 49.316406 71.515625 C 49.226562 71.515625 49.164062 71.472656 49.121094 71.394531 C 49.101562 71.351562 49.089844 71.304688 49.089844 71.25 C 49.089844 71.199219 49.097656 71.15625 49.113281 71.117188 C 49.128906 71.066406 49.152344 71.023438 49.1875 70.988281 C 49.28125 70.898438 49.410156 70.785156 49.570312 70.652344 C 49.714844 70.535156 49.898438 70.394531 50.117188 70.230469 C 50.4375 69.25 50.875 68.347656 51.429688 67.523438 C 51.992188 66.679688 52.671875 65.910156 53.476562 65.222656 C 54.273438 64.535156 54.984375 64.019531 55.605469 63.675781 C 56.246094 63.320312 56.796875 63.144531 57.261719 63.144531 C 57.679688 63.144531 58 63.226562 58.222656 63.398438 C 58.457031 63.578125 58.574219 63.84375 58.574219 64.191406 C 58.574219 64.3125 58.550781 64.4375 58.503906 64.566406 C 58.457031 64.6875 58.390625 64.8125 58.300781 64.941406 C 58.214844 65.066406 58.097656 65.207031 57.945312 65.355469 C 57.792969 65.5 57.613281 65.65625 57.398438 65.828125 C 57.191406 65.988281 56.984375 66.148438 56.773438 66.304688 C 56.5625 66.460938 56.363281 66.609375 56.171875 66.742188 C 55.984375 66.875 55.730469 67.050781 55.417969 67.261719 C 55.117188 67.46875 54.75 67.714844 54.324219 68 C 53.910156 68.277344 53.523438 68.539062 53.164062 68.785156 C 52.816406 69.019531 52.511719 69.230469 52.246094 69.414062 Z M 51.625 70.292969 C 51.691406 69.960938 51.792969 69.609375 51.925781 69.238281 L 51.992188 69.152344 L 52.257812 68.964844 L 52.101562 68.847656 C 52.351562 68.1875 52.640625 67.566406 52.96875 66.980469 C 53.296875 66.398438 53.667969 65.847656 54.082031 65.332031 C 54.222656 65.160156 54.359375 65 54.496094 64.855469 C 54.246094 65.050781 53.984375 65.261719 53.714844 65.496094 C 52.9375 66.164062 52.277344 66.90625 51.730469 67.722656 C 51.1875 68.539062 50.757812 69.429688 50.445312 70.394531 L 50.382812 70.484375 L 50.234375 70.59375 L 50.363281 70.679688 C 50.304688 70.9375 50.261719 71.152344 50.234375 71.332031 C 50.207031 71.5 50.195312 71.628906 50.195312 71.722656 C 50.195312 72.339844 50.414062 72.800781 50.851562 73.101562 C 51.3125 73.417969 52.015625 73.578125 52.964844 73.578125 C 53.472656 73.578125 53.988281 73.515625 54.507812 73.390625 C 54.734375 73.332031 54.964844 73.265625 55.195312 73.1875 C 54.722656 73.3125 54.269531 73.378906 53.832031 73.378906 C 53.078125 73.378906 52.503906 73.199219 52.113281 72.84375 C 51.71875 72.480469 51.523438 71.949219 51.523438 71.25 C 51.523438 70.949219 51.554688 70.628906 51.625 70.292969 Z M 57.265625 63.507812 C 56.960938 63.507812 56.609375 63.597656 56.207031 63.777344 C 56.3125 63.757812 56.417969 63.75 56.523438 63.75 C 56.964844 63.75 57.183594 63.96875 57.183594 64.40625 C 57.183594 64.660156 57.085938 64.9375 56.882812 65.242188 C 56.695312 65.53125 56.414062 65.84375 56.039062 66.1875 C 55.695312 66.5 55.246094 66.878906 54.683594 67.320312 L 55.210938 66.964844 C 55.515625 66.757812 55.765625 66.585938 55.964844 66.445312 C 56.164062 66.304688 56.363281 66.160156 56.558594 66.015625 C 56.753906 65.871094 56.957031 65.714844 57.171875 65.542969 C 57.378906 65.378906 57.550781 65.230469 57.691406 65.09375 C 57.828125 64.960938 57.929688 64.84375 58.003906 64.738281 C 58.074219 64.636719 58.128906 64.535156 58.164062 64.441406 C 58.195312 64.355469 58.210938 64.269531 58.210938 64.191406 C 58.210938 63.960938 58.140625 63.792969 58 63.683594 C 57.84375 63.566406 57.597656 63.507812 57.265625 63.507812 Z M 52.675781 68.390625 C 53.304688 67.925781 53.863281 67.503906 54.351562 67.121094 C 54.957031 66.648438 55.4375 66.246094 55.792969 65.917969 C 56.144531 65.597656 56.40625 65.304688 56.582031 65.042969 C 56.742188 64.800781 56.820312 64.589844 56.820312 64.40625 C 56.820312 64.210938 56.722656 64.113281 56.523438 64.113281 C 56.199219 64.113281 55.859375 64.230469 55.507812 64.460938 C 55.140625 64.703125 54.757812 65.070312 54.363281 65.558594 C 53.96875 66.054688 53.609375 66.585938 53.285156 67.160156 C 53.0625 67.550781 52.859375 67.960938 52.675781 68.390625 Z M 52.675781 68.390625 " fill-opacity="1" fill-rule="nonzero"/><path fill="#0b4f74" d="M 78.929688 81.984375 C 74.585938 84.292969 81.542969 107.722656 66.351562 86.125 C 65.875 85.449219 65.289062 84.515625 64.636719 83.386719 L 66.230469 82.9375 C 68.246094 86.257812 70.664062 89.4375 73.347656 92.792969 C 78.355469 98.125 74.492188 82.203125 78.929688 81.984375 Z M 78.929688 81.984375 " fill-opacity="1" fill-rule="evenodd"/><path fill="#0b4f74" d="M 70.558594 77.824219 L 70.003906 77.824219 L 70.003906 74.53125 L 69.292969 74.53125 L 69.292969 74.015625 L 71.273438 74.015625 L 71.273438 74.53125 L 70.558594 74.53125 Z M 72.308594 77.824219 L 71.789062 77.824219 L 71.789062 74.949219 L 72.277344 74.949219 L 72.277344 75.277344 C 72.363281 75.152344 72.460938 75.054688 72.570312 74.996094 C 72.683594 74.933594 72.8125 74.902344 72.957031 74.898438 L 72.957031 75.441406 C 72.726562 75.457031 72.558594 75.527344 72.460938 75.644531 C 72.359375 75.765625 72.308594 75.957031 72.308594 76.222656 Z M 76.199219 77.824219 L 75.703125 77.824219 L 75.703125 77.5 C 75.597656 77.632812 75.480469 77.726562 75.351562 77.789062 C 75.226562 77.855469 75.082031 77.886719 74.921875 77.886719 C 74.558594 77.886719 74.277344 77.773438 74.078125 77.550781 C 73.878906 77.324219 73.777344 77.007812 73.777344 76.601562 L 73.777344 74.949219 L 74.300781 74.949219 L 74.300781 76.453125 C 74.300781 76.761719 74.355469 76.996094 74.464844 77.148438 C 74.574219 77.304688 74.738281 77.382812 74.960938 77.382812 C 75.097656 77.382812 75.214844 77.351562 75.324219 77.289062 C 75.429688 77.222656 75.515625 77.132812 75.578125 77.015625 C 75.617188 76.941406 75.644531 76.855469 75.660156 76.753906 C 75.675781 76.652344 75.683594 76.488281 75.683594 76.265625 L 75.683594 74.945312 L 76.199219 74.945312 Z M 77.089844 76.890625 L 77.578125 76.890625 C 77.578125 77.042969 77.621094 77.167969 77.707031 77.265625 C 77.792969 77.367188 77.898438 77.414062 78.027344 77.414062 C 78.144531 77.414062 78.246094 77.378906 78.324219 77.304688 C 78.402344 77.230469 78.441406 77.136719 78.441406 77.019531 C 78.441406 76.917969 78.410156 76.832031 78.355469 76.761719 C 78.300781 76.695312 78.210938 76.632812 78.089844 76.585938 C 78.046875 76.566406 77.988281 76.542969 77.910156 76.515625 C 77.707031 76.441406 77.578125 76.378906 77.519531 76.332031 C 77.417969 76.253906 77.34375 76.160156 77.292969 76.054688 C 77.246094 75.953125 77.21875 75.832031 77.21875 75.695312 C 77.21875 75.464844 77.300781 75.265625 77.464844 75.101562 C 77.628906 74.9375 77.828125 74.855469 78.066406 74.855469 C 78.3125 74.855469 78.507812 74.925781 78.652344 75.070312 C 78.796875 75.214844 78.875 75.414062 78.890625 75.675781 L 78.390625 75.675781 C 78.382812 75.570312 78.347656 75.484375 78.285156 75.425781 C 78.226562 75.367188 78.144531 75.335938 78.039062 75.335938 C 77.949219 75.335938 77.871094 75.371094 77.808594 75.433594 C 77.746094 75.496094 77.714844 75.574219 77.714844 75.667969 C 77.714844 75.832031 77.855469 75.960938 78.132812 76.0625 C 78.214844 76.09375 78.273438 76.117188 78.320312 76.136719 C 78.542969 76.222656 78.699219 76.335938 78.792969 76.46875 C 78.886719 76.597656 78.933594 76.777344 78.933594 76.996094 C 78.933594 77.253906 78.847656 77.46875 78.671875 77.640625 C 78.496094 77.8125 78.277344 77.898438 78.007812 77.898438 C 77.742188 77.898438 77.527344 77.808594 77.363281 77.628906 C 77.195312 77.449219 77.109375 77.203125 77.089844 76.890625 Z M 80.019531 77.824219 L 80.019531 75.417969 L 79.609375 75.417969 L 79.609375 74.949219 L 80.019531 74.949219 L 80.019531 74.015625 L 80.535156 74.015625 L 80.535156 74.949219 L 80.941406 74.949219 L 80.941406 75.417969 L 80.535156 75.417969 L 80.535156 77.824219 Z M 84.015625 76.367188 C 84.015625 76.65625 84.109375 76.902344 84.304688 77.097656 C 84.496094 77.296875 84.734375 77.394531 85.011719 77.394531 C 85.265625 77.394531 85.492188 77.296875 85.6875 77.097656 C 85.882812 76.898438 85.976562 76.667969 85.976562 76.402344 C 85.976562 76.121094 85.882812 75.878906 85.6875 75.675781 C 85.496094 75.476562 85.265625 75.375 85 75.375 C 84.730469 75.375 84.496094 75.46875 84.300781 75.664062 C 84.109375 75.855469 84.011719 76.089844 84.011719 76.367188 Z M 85.953125 77.824219 L 85.953125 77.46875 C 85.820312 77.605469 85.671875 77.710938 85.507812 77.78125 C 85.34375 77.851562 85.171875 77.886719 84.984375 77.886719 C 84.550781 77.886719 84.191406 77.742188 83.90625 77.453125 C 83.621094 77.167969 83.476562 76.804688 83.476562 76.371094 C 83.476562 76.167969 83.511719 75.976562 83.585938 75.796875 C 83.65625 75.613281 83.757812 75.453125 83.890625 75.316406 C 84.035156 75.164062 84.191406 75.054688 84.367188 74.980469 C 84.539062 74.910156 84.734375 74.871094 84.953125 74.871094 C 85.152344 74.871094 85.332031 74.90625 85.5 74.976562 C 85.664062 75.046875 85.816406 75.152344 85.953125 75.296875 L 85.953125 74.949219 L 86.476562 74.949219 L 86.476562 77.824219 Z M 88.0625 77.824219 L 87.539062 77.824219 L 87.539062 74.949219 L 88.039062 74.949219 L 88.039062 75.273438 C 88.148438 75.144531 88.269531 75.050781 88.398438 74.988281 C 88.527344 74.929688 88.675781 74.898438 88.84375 74.898438 C 89.222656 74.898438 89.511719 75.011719 89.714844 75.230469 C 89.914062 75.453125 90.015625 75.769531 90.015625 76.183594 L 90.015625 77.824219 L 89.496094 77.824219 L 89.496094 76.296875 C 89.496094 75.992188 89.4375 75.765625 89.324219 75.617188 C 89.210938 75.46875 89.035156 75.398438 88.796875 75.398438 C 88.539062 75.398438 88.351562 75.484375 88.234375 75.65625 C 88.121094 75.832031 88.0625 76.117188 88.0625 76.515625 Z M 91.476562 76.367188 C 91.476562 76.65625 91.574219 76.902344 91.765625 77.097656 C 91.960938 77.296875 92.195312 77.394531 92.472656 77.394531 C 92.730469 77.394531 92.953125 77.296875 93.148438 77.097656 C 93.34375 76.898438 93.441406 76.667969 93.441406 76.402344 C 93.441406 76.121094 93.34375 75.878906 93.152344 75.675781 C 92.960938 75.476562 92.730469 75.375 92.464844 75.375 C 92.191406 75.375 91.960938 75.46875 91.765625 75.664062 C 91.574219 75.855469 91.476562 76.089844 91.476562 76.367188 Z M 93.414062 77.824219 L 93.414062 77.46875 C 93.28125 77.605469 93.132812 77.710938 92.972656 77.78125 C 92.808594 77.851562 92.632812 77.886719 92.449219 77.886719 C 92.015625 77.886719 91.65625 77.742188 91.367188 77.453125 C 91.082031 77.167969 90.9375 76.804688 90.9375 76.371094 C 90.9375 76.167969 90.976562 75.976562 91.046875 75.796875 C 91.117188 75.613281 91.21875 75.453125 91.351562 75.316406 C 91.496094 75.164062 91.65625 75.054688 91.828125 74.980469 C 92 74.910156 92.195312 74.871094 92.417969 74.871094 C 92.613281 74.871094 92.792969 74.90625 92.960938 74.976562 C 93.128906 75.046875 93.28125 75.152344 93.417969 75.296875 L 93.417969 74.015625 L 93.941406 74.015625 L 93.941406 77.824219 Z M 98.855469 77.824219 L 96.875 77.824219 L 96.875 74.015625 L 98.855469 74.015625 L 98.855469 74.523438 L 97.429688 74.523438 L 97.429688 75.660156 L 98.855469 75.660156 L 98.855469 76.15625 L 97.429688 76.15625 L 97.429688 77.296875 L 98.855469 77.296875 Z M 101.546875 77.824219 L 100.878906 76.734375 L 100.183594 77.824219 L 99.605469 77.824219 L 100.582031 76.328125 L 99.71875 74.949219 L 100.300781 74.949219 L 100.902344 75.933594 L 101.515625 74.949219 L 102.113281 74.949219 L 101.203125 76.3125 L 102.125 77.824219 Z M 105.617188 76.84375 C 105.496094 77.1875 105.316406 77.453125 105.078125 77.628906 C 104.839844 77.808594 104.550781 77.898438 104.210938 77.898438 C 103.996094 77.898438 103.800781 77.859375 103.625 77.785156 C 103.449219 77.710938 103.292969 77.601562 103.152344 77.453125 C 103.015625 77.3125 102.910156 77.148438 102.835938 76.960938 C 102.757812 76.773438 102.722656 76.582031 102.722656 76.386719 C 102.722656 76.1875 102.757812 76 102.824219 75.824219 C 102.894531 75.648438 102.996094 75.488281 103.128906 75.34375 C 103.277344 75.1875 103.445312 75.066406 103.628906 74.984375 C 103.816406 74.902344 104.015625 74.863281 104.226562 74.863281 C 104.558594 74.863281 104.84375 74.953125 105.085938 75.136719 C 105.328125 75.316406 105.503906 75.570312 105.617188 75.902344 L 105.046875 75.902344 C 104.953125 75.726562 104.839844 75.59375 104.695312 75.507812 C 104.550781 75.417969 104.378906 75.375 104.179688 75.375 C 103.925781 75.375 103.707031 75.472656 103.527344 75.664062 C 103.347656 75.859375 103.257812 76.097656 103.257812 76.382812 C 103.257812 76.667969 103.347656 76.910156 103.53125 77.101562 C 103.714844 77.292969 103.941406 77.390625 104.210938 77.390625 C 104.390625 77.390625 104.554688 77.339844 104.703125 77.246094 C 104.847656 77.152344 104.964844 77.015625 105.046875 76.84375 Z M 108.835938 76.109375 C 108.773438 75.871094 108.660156 75.6875 108.5 75.558594 C 108.34375 75.429688 108.152344 75.367188 107.929688 75.367188 C 107.703125 75.367188 107.503906 75.433594 107.339844 75.566406 C 107.171875 75.699219 107.058594 75.878906 106.996094 76.109375 Z M 106.980469 76.574219 C 107.023438 76.816406 107.132812 77.011719 107.304688 77.160156 C 107.480469 77.308594 107.683594 77.382812 107.925781 77.382812 C 108.09375 77.382812 108.25 77.34375 108.390625 77.261719 C 108.53125 77.179688 108.644531 77.0625 108.730469 76.914062 L 109.3125 76.914062 C 109.183594 77.230469 108.996094 77.476562 108.757812 77.644531 C 108.519531 77.8125 108.242188 77.898438 107.925781 77.898438 C 107.710938 77.898438 107.515625 77.859375 107.339844 77.785156 C 107.164062 77.710938 107.003906 77.597656 106.859375 77.449219 C 106.726562 77.308594 106.621094 77.144531 106.542969 76.957031 C 106.46875 76.769531 106.429688 76.578125 106.429688 76.382812 C 106.429688 76.179688 106.464844 75.992188 106.535156 75.816406 C 106.601562 75.640625 106.703125 75.480469 106.839844 75.335938 C 106.984375 75.179688 107.144531 75.0625 107.324219 74.980469 C 107.503906 74.902344 107.699219 74.863281 107.914062 74.863281 C 108.167969 74.863281 108.402344 74.921875 108.621094 75.039062 C 108.835938 75.15625 109.019531 75.320312 109.160156 75.53125 C 109.242188 75.660156 109.304688 75.804688 109.34375 75.960938 C 109.386719 76.117188 109.40625 76.292969 109.40625 76.496094 L 109.40625 76.574219 L 106.976562 76.574219 Z M 110.316406 77.824219 L 110.316406 74.015625 L 110.832031 74.015625 L 110.832031 77.824219 Z M 111.910156 77.824219 L 111.910156 74.015625 L 112.425781 74.015625 L 112.425781 77.824219 Z M 115.75 76.109375 C 115.683594 75.871094 115.574219 75.6875 115.414062 75.558594 C 115.253906 75.429688 115.066406 75.367188 114.84375 75.367188 C 114.613281 75.367188 114.417969 75.433594 114.25 75.566406 C 114.085938 75.699219 113.96875 75.878906 113.90625 76.109375 Z M 113.890625 76.574219 C 113.933594 76.816406 114.042969 77.011719 114.21875 77.160156 C 114.390625 77.308594 114.597656 77.382812 114.835938 77.382812 C 115.007812 77.382812 115.164062 77.34375 115.304688 77.261719 C 115.445312 77.179688 115.558594 77.0625 115.640625 76.914062 L 116.226562 76.914062 C 116.09375 77.230469 115.910156 77.476562 115.671875 77.644531 C 115.429688 77.8125 115.152344 77.898438 114.835938 77.898438 C 114.625 77.898438 114.429688 77.859375 114.253906 77.785156 C 114.074219 77.710938 113.917969 77.597656 113.773438 77.449219 C 113.636719 77.308594 113.53125 77.144531 113.457031 76.957031 C 113.378906 76.769531 113.34375 76.578125 113.34375 76.382812 C 113.34375 76.179688 113.378906 75.992188 113.445312 75.816406 C 113.515625 75.640625 113.617188 75.480469 113.75 75.335938 C 113.894531 75.179688 114.058594 75.0625 114.238281 74.980469 C 114.417969 74.902344 114.613281 74.863281 114.828125 74.863281 C 115.078125 74.863281 115.316406 74.921875 115.53125 75.039062 C 115.75 75.15625 115.929688 75.320312 116.070312 75.53125 C 116.15625 75.660156 116.21875 75.804688 116.257812 75.960938 C 116.296875 76.117188 116.316406 76.292969 116.316406 76.496094 L 116.316406 76.574219 Z M 117.75 77.824219 L 117.230469 77.824219 L 117.230469 74.949219 L 117.730469 74.949219 L 117.730469 75.273438 C 117.835938 75.144531 117.957031 75.050781 118.085938 74.988281 C 118.214844 74.929688 118.367188 74.898438 118.53125 74.898438 C 118.910156 74.898438 119.199219 75.011719 119.402344 75.230469 C 119.601562 75.453125 119.703125 75.769531 119.703125 76.183594 L 119.703125 77.824219 L 119.183594 77.824219 L 119.183594 76.296875 C 119.183594 75.992188 119.128906 75.765625 119.011719 75.617188 C 118.898438 75.472656 118.722656 75.398438 118.488281 75.398438 C 118.226562 75.398438 118.039062 75.484375 117.925781 75.65625 C 117.808594 75.832031 117.75 76.117188 117.75 76.515625 Z M 123.511719 76.84375 C 123.390625 77.1875 123.210938 77.453125 122.972656 77.628906 C 122.738281 77.808594 122.449219 77.898438 122.105469 77.898438 C 121.890625 77.898438 121.695312 77.863281 121.523438 77.785156 C 121.347656 77.714844 121.191406 77.601562 121.046875 77.453125 C 120.914062 77.3125 120.808594 77.148438 120.730469 76.960938 C 120.65625 76.773438 120.617188 76.582031 120.617188 76.386719 C 120.617188 76.1875 120.652344 76 120.722656 75.824219 C 120.789062 75.648438 120.894531 75.492188 121.027344 75.347656 C 121.175781 75.1875 121.34375 75.066406 121.527344 74.984375 C 121.714844 74.902344 121.910156 74.863281 122.121094 74.863281 C 122.453125 74.863281 122.738281 74.953125 122.984375 75.136719 C 123.226562 75.316406 123.402344 75.570312 123.511719 75.902344 L 122.941406 75.902344 C 122.851562 75.726562 122.734375 75.59375 122.59375 75.507812 C 122.449219 75.421875 122.277344 75.375 122.078125 75.375 C 121.820312 75.375 121.601562 75.472656 121.421875 75.667969 C 121.246094 75.859375 121.15625 76.097656 121.15625 76.382812 C 121.15625 76.671875 121.246094 76.910156 121.429688 77.101562 C 121.609375 77.292969 121.835938 77.390625 122.105469 77.390625 C 122.289062 77.390625 122.453125 77.339844 122.601562 77.246094 C 122.746094 77.152344 122.859375 77.015625 122.941406 76.84375 Z M 126.734375 76.109375 C 126.667969 75.875 126.558594 75.691406 126.398438 75.558594 C 126.238281 75.429688 126.046875 75.367188 125.824219 75.367188 C 125.597656 75.367188 125.402344 75.433594 125.234375 75.566406 C 125.070312 75.699219 124.953125 75.878906 124.890625 76.109375 Z M 124.875 76.574219 C 124.917969 76.816406 125.027344 77.011719 125.203125 77.160156 C 125.375 77.308594 125.582031 77.382812 125.820312 77.382812 C 125.992188 77.382812 126.148438 77.34375 126.289062 77.261719 C 126.429688 77.179688 126.539062 77.0625 126.625 76.914062 L 127.210938 76.914062 C 127.078125 77.230469 126.890625 77.476562 126.652344 77.644531 C 126.414062 77.8125 126.136719 77.898438 125.820312 77.898438 C 125.609375 77.898438 125.414062 77.859375 125.234375 77.785156 C 125.058594 77.710938 124.898438 77.597656 124.757812 77.449219 C 124.621094 77.308594 124.515625 77.144531 124.441406 76.957031 C 124.363281 76.769531 124.328125 76.578125 124.328125 76.382812 C 124.328125 76.179688 124.363281 75.992188 124.429688 75.816406 C 124.5 75.640625 124.601562 75.480469 124.734375 75.335938 C 124.878906 75.179688 125.042969 75.0625 125.222656 74.980469 C 125.402344 74.902344 125.597656 74.863281 125.8125 74.863281 C 126.0625 74.863281 126.300781 74.921875 126.515625 75.039062 C 126.734375 75.15625 126.914062 75.320312 127.054688 75.53125 C 127.136719 75.660156 127.203125 75.804688 127.242188 75.960938 C 127.28125 76.117188 127.300781 76.292969 127.300781 76.496094 L 127.300781 76.574219 Z M 124.875 76.574219 " fill-opacity="1" fill-rule="nonzero"/><path fill="#5daf85" d="M 24.535156 58.550781 C 27.804688 55.847656 30.421875 53.273438 32.390625 50.828125 C 34.363281 48.386719 35.347656 45.925781 35.347656 43.453125 C 35.347656 42.871094 35.15625 42.582031 34.777344 42.582031 C 34.105469 42.582031 33.121094 43.519531 31.824219 45.394531 C 30.523438 47.273438 29.160156 49.59375 27.730469 52.355469 L 24.535156 58.554688 Z M 22.042969 60.953125 L 17.925781 64.007812 L 17.707031 64.136719 C 17.648438 64.136719 17.621094 64.109375 17.621094 64.050781 C 17.621094 63.992188 17.664062 63.933594 17.753906 63.875 C 19.53125 62.597656 21.0625 61.433594 22.347656 60.382812 L 26.15625 53.183594 C 26.300781 52.894531 26.621094 52.261719 27.117188 51.285156 C 27.613281 50.3125 27.964844 49.628906 28.167969 49.234375 C 28.371094 48.84375 28.714844 48.253906 29.195312 47.46875 C 29.679688 46.683594 30.109375 46.066406 30.488281 45.613281 C 30.867188 45.164062 31.335938 44.660156 31.886719 44.109375 C 32.441406 43.554688 33.027344 43.074219 33.640625 42.667969 C 34.660156 41.914062 35.566406 41.535156 36.351562 41.535156 C 36.847656 41.535156 37.097656 41.855469 37.097656 42.492188 C 37.097656 43.65625 36.820312 44.871094 36.265625 46.136719 C 35.710938 47.402344 35.054688 48.558594 34.296875 49.605469 C 33.535156 50.652344 32.507812 51.816406 31.210938 53.097656 C 29.910156 54.378906 28.789062 55.425781 27.839844 56.238281 C 26.890625 57.054688 25.671875 58.058594 24.1875 59.25 L 21.210938 65.054688 C 19.546875 68.3125 18.714844 70.363281 18.714844 71.207031 C 18.714844 71.585938 18.832031 71.90625 19.066406 72.167969 C 19.296875 72.429688 19.605469 72.558594 19.984375 72.558594 C 21.761719 72.558594 23.804688 71.570312 26.109375 69.59375 C 27.074219 68.75 27.789062 67.976562 28.253906 67.277344 C 28.3125 67.191406 28.371094 67.148438 28.429688 67.148438 C 28.488281 67.148438 28.519531 67.175781 28.519531 67.234375 C 28.519531 67.265625 28.503906 67.308594 28.472656 67.367188 C 27.042969 69.257812 25.351562 70.769531 23.398438 71.90625 C 21.910156 72.75 20.464844 73.167969 19.066406 73.167969 C 17.722656 73.167969 17.050781 72.574219 17.050781 71.378906 C 17.050781 70.652344 17.589844 69.285156 18.671875 67.277344 L 22.039062 60.953125 Z M 22.042969 60.953125 " fill-opacity="1" fill-rule="nonzero"/><path fill="#5daf85" d="M 25.300781 57.59375 C 26.566406 56.515625 27.726562 55.457031 28.78125 54.421875 C 30.082031 53.140625 31.222656 51.894531 32.203125 50.675781 C 33.171875 49.472656 33.898438 48.269531 34.382812 47.0625 C 34.863281 45.863281 35.101562 44.660156 35.101562 43.453125 C 35.101562 43.210938 35.070312 43.035156 35 42.929688 C 34.953125 42.859375 34.878906 42.824219 34.777344 42.824219 C 34.503906 42.824219 34.148438 43.035156 33.703125 43.460938 C 33.222656 43.917969 32.660156 44.609375 32.019531 45.53125 C 31.375 46.46875 30.710938 47.511719 30.035156 48.664062 C 29.355469 49.816406 28.660156 51.085938 27.945312 52.464844 Z M 29.121094 54.765625 L 29.042969 54.839844 L 29.230469 54.667969 C 29.792969 54.144531 30.394531 53.5625 31.039062 52.925781 C 31.6875 52.289062 32.265625 51.679688 32.773438 51.105469 C 33.285156 50.527344 33.726562 49.980469 34.097656 49.464844 C 34.472656 48.949219 34.824219 48.40625 35.148438 47.835938 C 35.46875 47.265625 35.769531 46.667969 36.042969 46.042969 C 36.582031 44.808594 36.855469 43.625 36.855469 42.496094 C 36.855469 42.230469 36.808594 42.039062 36.71875 41.921875 C 36.644531 41.824219 36.523438 41.777344 36.351562 41.777344 C 35.992188 41.777344 35.601562 41.863281 35.175781 42.039062 C 34.964844 42.128906 34.746094 42.242188 34.519531 42.371094 C 34.609375 42.351562 34.695312 42.339844 34.777344 42.339844 C 35.054688 42.339844 35.265625 42.449219 35.40625 42.667969 C 35.527344 42.855469 35.589844 43.117188 35.589844 43.453125 C 35.589844 44.71875 35.335938 45.980469 34.832031 47.242188 C 34.332031 48.492188 33.578125 49.742188 32.582031 50.980469 C 31.589844 52.207031 30.4375 53.46875 29.121094 54.765625 Z M 31.625 45.257812 C 32.207031 44.417969 32.730469 43.757812 33.191406 43.285156 C 33.09375 43.359375 32.992188 43.441406 32.894531 43.519531 C 32.613281 43.75 32.335938 44.003906 32.058594 44.28125 C 31.777344 44.558594 31.523438 44.820312 31.300781 45.0625 C 31.070312 45.308594 30.863281 45.546875 30.671875 45.769531 C 30.488281 45.992188 30.289062 46.253906 30.078125 46.554688 C 29.867188 46.859375 29.640625 47.203125 29.402344 47.59375 C 29.164062 47.984375 28.960938 48.328125 28.789062 48.621094 C 28.617188 48.914062 28.484375 49.15625 28.382812 49.347656 L 27.96875 50.152344 C 26.1875 53.640625 24.367188 57.074219 22.539062 60.542969 L 22.53125 60.546875 L 18.886719 67.394531 C 17.824219 69.363281 17.292969 70.695312 17.292969 71.382812 C 17.292969 72.414062 17.886719 72.929688 19.066406 72.929688 C 19.550781 72.929688 20.039062 72.875 20.535156 72.773438 C 20.347656 72.792969 20.164062 72.800781 19.984375 72.800781 C 19.761719 72.800781 19.558594 72.761719 19.375 72.683594 C 19.1875 72.605469 19.023438 72.484375 18.882812 72.328125 C 18.609375 72.019531 18.472656 71.644531 18.472656 71.207031 C 18.472656 70.753906 18.6875 70 19.113281 68.945312 C 19.535156 67.910156 20.160156 66.574219 20.992188 64.945312 L 23.800781 59.476562 L 23.78125 59.492188 L 27.515625 52.246094 C 28.230469 50.863281 28.929688 49.589844 29.617188 48.421875 C 30.304688 47.253906 30.972656 46.199219 31.625 45.257812 Z M 21.324219 61.785156 C 20.179688 62.632812 18.984375 63.65625 17.773438 64.378906 L 17.707031 64.378906 C 17.488281 64.378906 17.378906 64.269531 17.378906 64.050781 C 17.378906 63.90625 17.457031 63.78125 17.617188 63.675781 C 19.367188 62.417969 20.882812 61.269531 22.15625 60.230469 L 25.9375 53.078125 C 26.46875 52.027344 27.003906 50.980469 27.539062 49.933594 C 27.691406 49.628906 27.832031 49.359375 27.953125 49.125 C 28.058594 48.925781 28.195312 48.675781 28.371094 48.378906 C 28.542969 48.085938 28.75 47.738281 28.992188 47.34375 C 29.234375 46.949219 29.464844 46.59375 29.683594 46.28125 C 29.902344 45.960938 30.109375 45.6875 30.300781 45.460938 C 30.492188 45.234375 30.707031 44.992188 30.945312 44.734375 C 31.1875 44.476562 31.445312 44.210938 31.71875 43.9375 C 31.996094 43.660156 32.285156 43.398438 32.589844 43.148438 C 32.886719 42.902344 33.191406 42.675781 33.503906 42.46875 C 34.027344 42.082031 34.523438 41.789062 34.988281 41.59375 C 35.472656 41.394531 35.925781 41.292969 36.351562 41.292969 C 36.679688 41.292969 36.929688 41.402344 37.101562 41.628906 C 37.257812 41.832031 37.339844 42.121094 37.339844 42.496094 C 37.339844 43.691406 37.054688 44.9375 36.488281 46.234375 C 36.207031 46.875 35.898438 47.488281 35.566406 48.074219 C 35.234375 48.660156 34.875 49.21875 34.492188 49.746094 C 34.105469 50.28125 33.652344 50.839844 33.136719 51.425781 C 32.617188 52.011719 32.03125 52.628906 31.378906 53.269531 C 30.726562 53.914062 30.121094 54.496094 29.558594 55.019531 C 28.988281 55.550781 28.46875 56.019531 28 56.421875 C 27.511719 56.839844 26.96875 57.296875 26.367188 57.789062 C 25.777344 58.277344 25.113281 58.816406 24.375 59.40625 L 21.425781 65.164062 C 20.59375 66.789062 19.972656 68.109375 19.5625 69.125 C 19.160156 70.121094 18.957031 70.816406 18.957031 71.207031 C 18.957031 71.523438 19.054688 71.792969 19.246094 72.007812 C 19.339844 72.109375 19.445312 72.1875 19.5625 72.238281 C 19.6875 72.292969 19.828125 72.320312 19.984375 72.320312 C 20.835938 72.320312 21.757812 72.078125 22.746094 71.601562 C 23.746094 71.117188 24.8125 70.386719 25.953125 69.410156 C 26.429688 68.992188 26.84375 68.59375 27.191406 68.21875 C 27.539062 67.84375 27.828125 67.484375 28.054688 67.148438 C 28.160156 66.988281 28.285156 66.90625 28.429688 66.90625 C 28.527344 66.90625 28.605469 66.9375 28.667969 67 C 28.730469 67.0625 28.761719 67.140625 28.761719 67.238281 C 28.761719 67.277344 28.753906 67.320312 28.734375 67.367188 C 28.722656 67.402344 28.707031 67.4375 28.691406 67.476562 L 28.679688 67.496094 L 28.667969 67.511719 C 27.945312 68.46875 27.152344 69.332031 26.292969 70.097656 C 25.433594 70.867188 24.507812 71.539062 23.519531 72.113281 L 23.515625 72.113281 C 21.992188 72.980469 20.507812 73.414062 19.066406 73.414062 C 17.5625 73.414062 16.808594 72.734375 16.808594 71.382812 C 16.808594 70.617188 17.359375 69.210938 18.457031 67.167969 L 21.320312 61.789062 Z M 21.324219 61.785156 " fill-opacity="1" fill-rule="nonzero"/></svg>


